<svg width="210" height="210" viewBox="0 0 210 210" fill="none" xmlns="http://www.w3.org/2000/svg">
<path d="M105 0.106781C96.8205 0.106781 88.8595 1.04291 81.2223 2.81765C42.3846 11.8162 11.8161 42.3847 2.81756 81.2184C1.04282 88.8596 0.106689 96.8206 0.106689 105C0.106689 162.931 47.0691 209.893 105 209.893C113.179 209.893 121.14 208.957 128.781 207.182C167.615 198.184 198.184 167.619 207.186 128.789C208.961 121.148 209.897 113.183 209.897 105C209.897 47.0692 162.931 0.106781 105 0.106781ZM105 170.689C97.2573 170.689 89.8307 169.351 82.9346 166.89C64.407 160.282 49.7215 145.597 43.114 127.069C40.6528 120.173 39.3149 112.743 39.3149 105C39.3149 68.7211 68.721 39.3111 105 39.3111C112.742 39.3111 120.169 40.6489 127.065 43.1102C145.593 49.7177 160.282 64.4032 166.89 82.9308C169.351 89.8269 170.689 97.2574 170.689 105C170.689 141.279 141.279 170.689 105 170.689Z" fill="url(#paint0_linear_2001_1735)"/>
<path d="M105 62.6636C81.6202 62.6636 62.6636 81.6202 62.6636 105C62.6636 128.38 81.6202 147.336 105 147.336C128.38 147.336 147.336 128.38 147.336 105C147.336 81.6202 128.384 62.6636 105 62.6636ZM105 130.599C90.8645 130.599 79.4008 119.139 79.4008 105C79.4008 90.8606 90.8645 79.4008 105 79.4008C119.136 79.4008 130.599 90.8606 130.599 105C130.599 119.139 119.139 130.599 105 130.599Z" fill="#FEFCFE"/>
<path d="M127.065 43.1102C120.169 40.649 112.743 39.3111 105 39.3111C68.7211 39.3111 39.3149 68.7211 39.3149 105C39.3149 112.743 40.6528 120.173 43.1141 127.069C34.7318 123.902 26.8722 118.944 20.1243 112.197C11.2701 103.342 5.5012 92.5729 2.81763 81.2184C11.8162 42.3847 42.3847 11.8162 81.2223 2.81766C92.5729 5.50123 103.342 11.2701 112.196 20.1243C118.94 26.8684 123.898 34.7279 127.065 43.1102Z" fill="url(#paint1_linear_2001_1735)"/>
<path d="M207.186 128.789C198.184 167.619 167.615 198.184 128.781 207.182C117.431 204.499 106.662 198.73 97.8073 189.876C91.0594 183.128 86.1018 175.268 82.9346 166.89C89.8307 169.351 97.2573 170.689 105 170.689C141.279 170.689 170.689 141.279 170.689 105C170.689 97.2575 169.351 89.8269 166.89 82.9308C175.268 86.098 183.128 91.0556 189.876 97.8035C198.73 106.658 204.503 117.435 207.186 128.789Z" fill="url(#paint2_linear_2001_1735)"/>
<path d="M53.1151 178.841C65.2389 178.841 75.0673 169.013 75.0673 156.889C75.0673 144.765 65.2389 134.937 53.1151 134.937C40.9912 134.937 31.1628 144.765 31.1628 156.889C31.1628 169.013 40.9912 178.841 53.1151 178.841Z" fill="url(#paint3_linear_2001_1735)"/>
<path d="M157.08 74.8762C169.204 74.8762 179.032 65.0478 179.032 52.9239C179.032 40.8001 169.204 30.9717 157.08 30.9717C144.956 30.9717 135.128 40.8001 135.128 52.9239C135.128 65.0478 144.956 74.8762 157.08 74.8762Z" fill="url(#paint4_linear_2001_1735)"/>
<defs>
<linearGradient id="paint0_linear_2001_1735" x1="178.166" y1="35.863" x2="34.1116" y2="171.988" gradientUnits="userSpaceOnUse">
<stop stop-color="#F38856"/>
<stop offset="0.23" stop-color="#F0625C"/>
<stop offset="1" stop-color="#5C3DAB"/>
</linearGradient>
<linearGradient id="paint1_linear_2001_1735" x1="98.3613" y1="17.8893" x2="16.4227" y2="99.3871" gradientUnits="userSpaceOnUse">
<stop stop-color="#F67986"/>
<stop offset="1" stop-color="#8951BA"/>
</linearGradient>
<linearGradient id="paint2_linear_2001_1735" x1="192.075" y1="112.107" x2="110.137" y2="193.608" gradientUnits="userSpaceOnUse">
<stop stop-color="#F67986"/>
<stop offset="1" stop-color="#8951BA"/>
</linearGradient>
<linearGradient id="paint3_linear_2001_1735" x1="69.1424" y1="141.891" x2="37.0839" y2="171.886" gradientUnits="userSpaceOnUse">
<stop stop-color="#A267B9"/>
<stop offset="1" stop-color="#704BB4"/>
</linearGradient>
<linearGradient id="paint4_linear_2001_1735" x1="170.424" y1="40.4344" x2="148.538" y2="60.9161" gradientUnits="userSpaceOnUse">
<stop stop-color="#F7A8A5"/>
<stop offset="0.97" stop-color="#D074C4"/>
<stop offset="1" stop-color="#CF76A9"/>
</linearGradient>
</defs>
</svg>
